0
SECTION
2
HEADER
9
$INSUNITS
70
4
9
$ACADVER
1
AC1014
9
$HANDSEED
5
FFFF
0
ENDSEC
0
SECTION
2
TABLES
0
TABLE
2
VPORT
5
8
100
AcDbSymbolTable
0
ENDTAB
0
TABLE
2
LTYPE
5
5
100
AcDbSymbolTable
0
LTYPE
5
14
100
AcDbSymbolTableRecord
100
AcDbLinetypeTableRecord
2
BYBLOCK
70
0
0
LTYPE
5
15
100
AcDbSymbolTableRecord
100
AcDbLinetypeTableRecord
2
BYLAYER
70
0
0
ENDTAB
0
TABLE
2
LAYER
5
2
100
AcDbSymbolTable
70
2
0
LAYER
5
50
100
AcDbSymbolTableRecord
100
AcDbLayerTableRecord
2
0
70
0
6
CONTINUOUS
0
ENDTAB
0
TABLE
2
STYLE
5
3
100
AcDbSymbolTable
70
1
0
STYLE
5
11
100
AcDbSymbolTableRecord
100
AcDbTextStyleTableRecord
2
STANDARD
70
0
0
ENDTAB
0
TABLE
2
VIEW
5
6
100
AcDbSymbolTable
70
0
0
ENDTAB
0
TABLE
2
UCS
5
7
100
AcDbSymbolTable
70
0
0
ENDTAB
0
TABLE
2
APPID
5
9
100
AcDbSymbolTable
70
2
0
APPID
5
12
100
AcDbSymbolTableRecord
100
AcDbRegAppTableRecord
2
ACAD
70
0
0
ENDTAB
0
TABLE
2
DIMSTYLE
5
A
100
AcDbSymbolTable
70
1
0
ENDTAB
0
TABLE
2
BLOCK_RECORD
5
1
100
AcDbSymbolTable
70
1
0
BLOCK_RECORD
5
1F
100
AcDbSymbolTableRecord
100
AcDbBlockTableRecord
2
*MODEL_SPACE
0
BLOCK_RECORD
5
1B
100
AcDbSymbolTableRecord
100
AcDbBlockTableRecord
2
*PAPER_SPACE
0
ENDTAB
0
ENDSEC
0
SECTION
2
BLOCKS
0
BLOCK
5
20
100
AcDbEntity
100
AcDbBlockBegin
2
*MODEL_SPACE
0
ENDBLK
5
21
100
AcDbEntity
100
AcDbBlockEnd
0
BLOCK
5
1C
100
AcDbEntity
100
AcDbBlockBegin
2
*PAPER_SPACE
0
ENDBLK
5
1D
100
AcDbEntity
100
AcDbBlockEnd
0
ENDSEC
0
SECTION
2
ENTITIES
0
LWPOLYLINE
5
100
100
AcDbEntity
8
0
100
AcDbPolyline
90
4
70
1
43
0.0
10
-31.212001092606343
20
45.466300621579009
10
-19.66110326014654
20
45.466300621579009
10
-19.66110326014654
20
37.356095760490206
10
-31.212001092606343
20
37.356095760490206
0
LWPOLYLINE
5
101
100
AcDbEntity
8
0
100
AcDbPolyline
90
4
70
1
43
0.0
10
-40.599999092519283
20
47.399998940527439
10
-38.710503697739817
20
47.399998940527439
10
-38.710503697739817
20
40.999647618339338
10
-40.599999092519283
20
40.999647618339338
0
LWPOLYLINE
5
102
100
AcDbEntity
8
0
100
AcDbPolyline
90
4
70
1
43
0.0
10
-44.299999009817839
20
59.499998670071363
10
-38.99999912828207
20
59.499998670071363
10
-38.99999912828207
20
57.799998708069324
10
-44.299999009817839
20
57.799998708069324
0
LWPOLYLINE
5
103
100
AcDbEntity
8
0
100
AcDbPolyline
90
4
70
1
43
0.0
10
-33.799999244511127
20
59.599998667836189
10
-28.499999362975359
20
59.599998667836189
10
-28.499999362975359
20
57.89999870583415
10
-33.799999244511127
20
57.89999870583415
0
LWPOLYLINE
5
104
100
AcDbEntity
8
0
100
AcDbPolyline
90
4
70
1
43
0.0
10
-17.599999606609344
20
47.599998936057091
10
-16.000000238418579
20
47.599998936057091
10
-16.000000238418579
20
41.000000610947609
10
-17.599999606609344
20
41.000000610947609
0
LWPOLYLINE
5
105
100
AcDbEntity
8
0
100
AcDbPolyline
90
4
70
1
43
0.0
10
4.1132429850005083
20
56.346708252114659
10
10.394616031339368
20
56.346708252114659
10
10.394616031339368
20
54.592659573222598
10
4.1132429850005083
20
54.592659573222598
0
LWPOLYLINE
5
106
100
AcDbEntity
8
0
100
AcDbPolyline
90
4
70
1
43
0.0
10
4.5000000670552254
20
29.000000432133675
10
11.000000163912773
20
29.000000432133675
10
11.000000163912773
20
27.000000402331352
10
4.5000000670552254
20
27.000000402331352
0
LWPOLYLINE
5
107
100
AcDbEntity
8
0
100
AcDbPolyline
90
4
70
1
43
0.0
10
26.99343275345165
20
56.582162254104119
10
33.11694757638206
20
56.582162254104119
10
33.11694757638206
20
54.592659573222598
10
26.99343275345165
20
54.592659573222598
0
LWPOLYLINE
5
108
100
AcDbEntity
8
0
100
AcDbPolyline
90
4
70
1
43
0.0
10
27.321000761833396
20
29.144703329663493
10
33.645470037337788
20
29.144703329663493
10
33.645470037337788
20
27.481449316882241
10
27.321000761833396
20
27.481449316882241
0
LWPOLYLINE
5
109
100
AcDbEntity
8
0
100
AcDbPolyline
90
4
70
1
43
0.0
10
-45.236835437009908
20
33.372847345745399
10
-28.202828012770745
20
33.372847345745399
10
-28.202828012770745
20
31.515926804332828
10
-45.236835437009908
20
31.515926804332828
0
LWPOLYLINE
5
110
100
AcDbEntity
8
0
100
AcDbPolyline
90
4
70
1
43
0.0
10
-44.119611280649018
20
24.615878149951889
10
-38.710312217077174
20
24.615878149951889
10
-38.710312217077174
20
22.919470751316933
10
-44.119611280649018
20
22.919470751316933
0
LWPOLYLINE
5
111
100
AcDbEntity
8
0
100
AcDbPolyline
90
4
70
1
43
0.0
10
-33.599999248981476
20
24.799999445676804
10
-28.099999371916056
20
24.799999445676804
10
-28.099999371916056
20
22.999999485909939
10
-33.599999248981476
20
22.999999485909939
0
LWPOLYLINE
5
112
100
AcDbEntity
8
0
100
AcDbPolyline
90
4
70
1
43
0.0
10
41.749930343319484
20
45.317436243611567
10
43.670080938125302
20
45.317436243611567
10
43.670080938125302
20
39.017994818546875
10
41.749930343319484
20
39.017994818546875
0
CIRCLE
5
113
100
AcDbEntity
8
0
100
AcDbCircle
10
38.397735509604615
20
52.235747510557175
30
0
40
0.66318546054485672
210
0
220
0
230
1
0
LINE
5
114
100
AcDbEntity
8
0
100
AcDbLine
10
38.10543828146659
20
64.862463520697858
30
0
11
-55.953532938453066
21
63.635790744286638
31
0
0
LINE
5
115
100
AcDbEntity
8
0
100
AcDbLine
10
-58.000000864267349
20
46.000000685453415
30
0
11
-58.000000864267349
21
35.000000521540642
31
0
0
LINE
5
116
100
AcDbEntity
8
0
100
AcDbLine
10
-56.499998737126589
20
18.199999593198299
30
0
11
39.299999121576548
21
19.299999568611383
31
0
0
SPLINE
5
117
100
AcDbEntity
8
0
100
AcDbSpline
70
12
71
2
41
1
41
2.9999999999999911
41
1
72
6
73
3
74
0
42
0.000000001
43
0.0000000001
44
0.0000000001
40
0
40
0
40
0
40
1.9208361573992125
40
1.9208361573992125
40
1.9208361573992125
10
-55.953532938453066
20
63.635790744286638
30
0
10
-60.500000901520252
20
61.500000916421421
30
0
10
-58.000000864267349
20
46.000000685453415
30
0
0
SPLINE
5
118
100
AcDbEntity
8
0
100
AcDbSpline
70
12
71
2
41
1
41
2.9999999999999929
41
1
72
6
73
3
74
0
42
0.000000001
43
0.0000000001
44
0.0000000001
40
0
40
0
40
0
40
1.84676092282102
40
1.84676092282102
40
1.84676092282102
10
-58.000000864267349
20
35.000000521540642
30
0
10
-61.000000908970833
20
20.000000298023224
30
0
10
-56.499998737126589
20
18.199999593198299
30
0
0
ARC
5
119
100
AcDbEntity
8
0
100
AcDbCircle
10
38.455451745590146
20
38.024086586223774
30
0
40
26.84065919276161
210
0
220
-0
230
1
100
AcDbArc
50
8.5185883679087873
51
90.747182196500759
0
ARC
5
120
100
AcDbEntity
8
0
100
AcDbCircle
10
38.998712287072721
20
45.539343882671837
30
0
40
26.241073983136857
210
0
220
0
230
1
100
AcDbArc
50
270.65785582341806
51
352.24843542347469
0
LWPOLYLINE
5
121
100
AcDbEntity
8
0
100
AcDbPolyline
90
16
70
1
43
0.0
10
-59.750943605485745
20
15.480065598702568
10
-56.654289203288322
20
3.4805297901875676
10
-38.099999148398638
20
3.7999999150633812
10
-38.069719967654194
20
2.0414357852397775
10
-31.337381302988753
20
2.1573540482152982
10
-31.367660483733204
20
3.9159181780389094
10
-12.903480699131995
20
4.2338367728256445
10
-10.000000149011612
20
16.000000238418579
10
-19.938552547072092
20
15.828876979792133
10
-19.969917612598028
20
17.650507479937012
10
-26.460335057398478
20
17.538754647279312
10
-26.430894166351798
20
15.828876979792133
10
-42.917871594590366
20
15.914438609105357
10
-42.909151985153599
20
17.594631063608162
10
-49.750784101683635
20
17.630136734286729
10
-49.761821484841761
20
15.50332956084354
0
LWPOLYLINE
5
122
100
AcDbEntity
8
0
100
AcDbPolyline
90
16
70
1
43
0.0
10
-11.500000171363354
20
4.0000000596046448
10
-8.5000001266598701
20
16.000000238418579
10
9.6999997831881046
20
16.199999637901783
10
9.6999997831881046
20
17.799999602138996
10
16.06518667008212
20
17.873086299170136
10
16.083423528570872
20
16.284821714422403
10
34.260953270345944
20
16.493540740684946
10
37.899999152868986
20
4.6999998949468136
10
27.848459667114085
20
4.5845855584715558
10
27.868553890820543
20
2.8345613483998644
10
21.365750688749134
20
2.7598945057873636
10
21.344799121338358
20
4.5845855584715558
10
4.7264012068907419
20
4.3937688809570439
10
4.7473527743015165
20
2.5690778282728557
10
-1.6603809628071531
20
2.4955025974709915
10
-1.6813325302179294
20
4.3201936501551783
0
LWPOLYLINE
5
123
100
AcDbEntity
8
0
100
AcDbPolyline
90
12
70
1
43
0.0
10
38.472105882757226
20
17.799999602138996
10
38.606410476821623
20
6.1032904099844565
10
49.067885751329818
20
6.2234117335957118
10
49.091577258287927
20
4.160096854879912
10
55.432049990162241
20
4.2328997776884822
10
55.409194424906516
20
6.2234117335957118
10
65.47979356132285
20
6.4118574391384167
10
65.257632928898758
20
18.284193115839358
10
55.432049990162241
20
18.171373269987487
10
55.409194424906516
20
20.161885225895038
10
48.602646024259251
20
20.083730703549417
10
48.626080129951816
20
18.042833135050838
0
LINE
5
124
100
AcDbEntity
8
0
100
AcDbLine
10
48.399998918175697
20
15.399999655783176
30
0
11
42.099999058991671
21
15.399999655783176
31
0
0
LINE
5
125
100
AcDbEntity
8
0
100
AcDbLine
10
42.5999990478158
20
12.699999716132879
30
0
11
42.5999990478158
21
14.399999655783176
31
0
0
LINE
5
126
100
AcDbEntity
8
0
100
AcDbLine
10
43.5999990478158
20
15.399999655783176
30
0
11
60.49999862536788
21
15.39999965578318
31
0
0
LINE
5
127
100
AcDbEntity
8
0
100
AcDbLine
10
61.49999862536788
20
14.399999655783178
30
0
11
61.49999862536788
21
9.7999998033046705
31
0
0
LINE
5
128
100
AcDbEntity
8
0
100
AcDbLine
10
60.49999862536788
20
8.7999998033046722
30
0
11
43.5999990478158
21
8.7999998033046705
31
0
0
LINE
5
129
100
AcDbEntity
8
0
100
AcDbLine
10
42.5999990478158
20
9.7999998033046705
30
0
11
42.5999990478158
21
15.399999655783176
31
0
0
ARC
5
130
100
AcDbEntity
8
0
100
AcDbCircle
10
43.5999990478158
20
14.399999655783178
30
0
40
0.99999999999999867
210
0
220
-0
230
1
100
AcDbArc
50
90
51
180
0
ARC
5
131
100
AcDbEntity
8
0
100
AcDbCircle
10
43.5999990478158
20
9.7999998033046669
30
0
40
0.99999999999999645
210
0
220
0
230
1
100
AcDbArc
50
180
51
270
0
ARC
5
132
100
AcDbEntity
8
0
100
AcDbCircle
10
60.49999862536788
20
9.7999998033046669
30
0
40
0.99999999999999534
210
0
220
0
230
1
100
AcDbArc
50
-90
51
0
0
ARC
5
133
100
AcDbEntity
8
0
100
AcDbCircle
10
60.49999862536788
20
14.399999655783184
30
0
40
0.99999999999999645
210
0
220
0
230
1
100
AcDbArc
50
0
51
90
0
ENDSEC
0
SECTION
2
OBJECTS
0
DICTIONARY
5
C
100
AcDbDictionary
3
ACAD_GROUP
350
D
3
ACAD_MLINESTYLE
350
17
0
DICTIONARY
5
D
100
AcDbDictionary
0
DICTIONARY
5
1A
330
C
100
AcDbDictionary
0
DICTIONARY
5
17
100
AcDbDictionary
0
ENDSEC
0
EOF
