0
SECTION
2
HEADER
9
$INSUNITS
70
4
9
$ACADVER
1
AC1014
9
$HANDSEED
5
FFFF
0
ENDSEC
0
SECTION
2
TABLES
0
TABLE
2
VPORT
5
8
100
AcDbSymbolTable
0
ENDTAB
0
TABLE
2
LTYPE
5
5
100
AcDbSymbolTable
0
LTYPE
5
14
100
AcDbSymbolTableRecord
100
AcDbLinetypeTableRecord
2
BYBLOCK
70
0
0
LTYPE
5
15
100
AcDbSymbolTableRecord
100
AcDbLinetypeTableRecord
2
BYLAYER
70
0
0
ENDTAB
0
TABLE
2
LAYER
5
2
100
AcDbSymbolTable
70
2
0
LAYER
5
50
100
AcDbSymbolTableRecord
100
AcDbLayerTableRecord
2
0
70
0
6
CONTINUOUS
0
ENDTAB
0
TABLE
2
STYLE
5
3
100
AcDbSymbolTable
70
1
0
STYLE
5
11
100
AcDbSymbolTableRecord
100
AcDbTextStyleTableRecord
2
STANDARD
70
0
0
ENDTAB
0
TABLE
2
VIEW
5
6
100
AcDbSymbolTable
70
0
0
ENDTAB
0
TABLE
2
UCS
5
7
100
AcDbSymbolTable
70
0
0
ENDTAB
0
TABLE
2
APPID
5
9
100
AcDbSymbolTable
70
2
0
APPID
5
12
100
AcDbSymbolTableRecord
100
AcDbRegAppTableRecord
2
ACAD
70
0
0
ENDTAB
0
TABLE
2
DIMSTYLE
5
A
100
AcDbSymbolTable
70
1
0
ENDTAB
0
TABLE
2
BLOCK_RECORD
5
1
100
AcDbSymbolTable
70
1
0
BLOCK_RECORD
5
1F
100
AcDbSymbolTableRecord
100
AcDbBlockTableRecord
2
*MODEL_SPACE
0
BLOCK_RECORD
5
1B
100
AcDbSymbolTableRecord
100
AcDbBlockTableRecord
2
*PAPER_SPACE
0
ENDTAB
0
ENDSEC
0
SECTION
2
BLOCKS
0
BLOCK
5
20
100
AcDbEntity
100
AcDbBlockBegin
2
*MODEL_SPACE
0
ENDBLK
5
21
100
AcDbEntity
100
AcDbBlockEnd
0
BLOCK
5
1C
100
AcDbEntity
100
AcDbBlockBegin
2
*PAPER_SPACE
0
ENDBLK
5
1D
100
AcDbEntity
100
AcDbBlockEnd
0
ENDSEC
0
SECTION
2
ENTITIES
0
LINE
5
100
100
AcDbEntity
8
0
100
AcDbLine
10
-55.020877479931514
20
-7.1966307639944924
30
0
11
-55.020877479931514
21
-9.0000001341104507
31
0
0
LINE
5
101
100
AcDbEntity
8
0
100
AcDbLine
10
-55.020877479931514
20
-9.0000001341104507
30
0
11
-56.82769851354449
21
-9.0000001341104507
31
0
0
LINE
5
102
100
AcDbEntity
8
0
100
AcDbLine
10
-55.020877479931514
20
-7.1966307639944924
30
0
11
-49.500000737607479
21
-7.1966307639944924
31
0
0
LINE
5
103
100
AcDbEntity
8
0
100
AcDbLine
10
-49.500000737607479
20
-7.1966307639944924
30
0
11
-49.500000737607479
21
-9.0000001341104507
31
0
0
LINE
5
104
100
AcDbEntity
8
0
100
AcDbLine
10
-49.500000737607479
20
-9.0000001341104507
30
0
11
-47.191996230705648
21
-9.0000001341104507
31
0
0
LINE
5
105
100
AcDbEntity
8
0
100
AcDbLine
10
-47.191996230705648
20
-9.0000001341104507
30
0
11
-47.191996230705648
21
-10.199999772012234
31
0
0
LINE
5
106
100
AcDbEntity
8
0
100
AcDbLine
10
-47.191996230705648
20
-10.199999772012234
30
0
11
-45.199998989701271
21
-10.199999772012234
31
0
0
LINE
5
107
100
AcDbEntity
8
0
100
AcDbLine
10
-45.199998989701271
20
-10.199999772012234
30
0
11
-45.199998989701271
21
-15.819644298649752
31
0
0
LINE
5
108
100
AcDbEntity
8
0
100
AcDbLine
10
-45.199998989701271
20
-15.819644298649752
30
0
11
-47.099998947232962
21
-15.819644298649752
31
0
0
LINE
5
109
100
AcDbEntity
8
0
100
AcDbLine
10
-47.099998947232962
20
-15.819644298649752
30
0
11
-47.099998947232962
21
-20.823367235426204
31
0
0
LINE
5
110
100
AcDbEntity
8
0
100
AcDbLine
10
-47.099998947232962
20
-20.823367235426204
30
0
11
-45.199998989701271
21
-20.823367235426204
31
0
0
LINE
5
111
100
AcDbEntity
8
0
100
AcDbLine
10
-45.199998989701271
20
-20.823367235426204
30
0
11
-45.199998989701271
21
-26.425748570064037
31
0
0
LINE
5
112
100
AcDbEntity
8
0
100
AcDbLine
10
-45.199998989701271
20
-26.425748570064037
30
0
11
-47.099998947232962
21
-26.425748570064037
31
0
0
LINE
5
113
100
AcDbEntity
8
0
100
AcDbLine
10
-47.099998947232962
20
-26.425748570064037
30
0
11
-47.099998947232962
21
-27.750857100230299
31
0
0
LINE
5
114
100
AcDbEntity
8
0
100
AcDbLine
10
-47.099998947232962
20
-27.750857100230299
30
0
11
-58.000000864267349
21
-27.750857100230299
31
0
0
LINE
5
115
100
AcDbEntity
8
0
100
AcDbLine
10
-57.827698513544483
20
-9.8458452983484239
30
0
11
-57.827698513544483
21
-29.000000432133675
31
0
0
LINE
5
116
100
AcDbEntity
8
0
100
AcDbLine
10
-57.827698513544483
20
-29.000000432133675
30
0
11
-57.827698513544483
21
-10.000000134110445
31
0
0
ARC
5
117
100
AcDbEntity
8
0
100
AcDbCircle
10
-56.82769851354449
20
-10.000000134110444
30
0
40
0.99999999999999201
210
0
220
-0
230
1
100
AcDbArc
50
90
51
180
0
CIRCLE
5
118
100
AcDbEntity
8
0
100
AcDbCircle
10
-54.003846225613984
20
-19.507952685037608
30
0
40
0.7753903702740963
210
0
220
0
230
1
0
LWPOLYLINE
5
119
100
AcDbEntity
8
0
100
AcDbPolyline
90
12
70
1
43
0.0
10
-56.500000841915607
20
-30.500000454485416
10
-56.500000841915607
20
-35.500000528991222
10
-58.682621007556207
20
-35.500000528991222
10
-58.682621007556207
20
-42.500000633299351
10
-56.500000841915607
20
-42.500000633299351
10
-56.500000841915607
20
-47.500000707805157
10
-46.674296653968845
20
-47.500000707805157
10
-46.674296653968845
20
-42.500000633299351
10
-44.500000663101673
20
-42.500000633299351
10
-44.500000663101673
20
-35.345218451332656
10
-46.674296653968845
20
-35.345218451332656
10
-46.674296653968845
20
-30.347066946848326
0
LWPOLYLINE
5
120
100
AcDbEntity
8
0
100
AcDbPolyline
90
12
70
1
43
0.0
10
-58.682621007556207
20
-42.500000633299351
10
-56.500000841915607
20
-42.500000633299351
10
-56.500000841915607
20
-47.500000707805157
10
-46.674296653968845
20
-47.500000707805157
10
-46.674296653968845
20
-42.500000633299351
10
-44.500000663101673
20
-42.500000633299351
10
-44.500000663101673
20
-35.345218451332656
10
-46.674296653968845
20
-35.345218451332656
10
-46.674296653968845
20
-30.347066946848326
10
-56.500000841915607
20
-30.500000454485416
10
-56.500000841915607
20
-35.500000528991222
10
-58.682621007556207
20
-35.500000528991222
0
LWPOLYLINE
5
121
100
AcDbEntity
8
0
100
AcDbPolyline
90
12
70
1
43
0.0
10
-58.682621007556207
20
-61.975119771052718
10
-56.500000841915607
20
-61.975119771052718
10
-56.500000841915607
20
-66.870143673109212
10
-46.674296653968845
20
-66.870143673109212
10
-46.674296653968845
20
-61.765167426154079
10
-44.500000663101673
20
-61.765167426154079
10
-44.500000663101673
20
-54.767849502861374
10
-46.674296653968845
20
-54.767849502861374
10
-46.674296653968845
20
-49.770514956325499
10
-56.500000841915607
20
-49.923448463962586
10
-56.500000841915607
20
-54.97511966674459
10
-58.682621007556207
20
-54.97511966674459
0
LINE
5
122
100
AcDbEntity
8
0
100
AcDbLine
10
-36.000000536441803
20
-6.0000000894069672
30
0
11
-42.08309922050131
21
-6.0000000894069672
31
0
0
LINE
5
123
100
AcDbEntity
8
0
100
AcDbLine
10
-43.58309922050131
20
-20.014897834913885
30
0
11
-43.58309922050131
21
-7.5000000894069601
31
0
0
LINE
5
124
100
AcDbEntity
8
0
100
AcDbLine
10
-42.08309922050131
20
-6.0000000894069672
30
0
11
-34.763219706943232
21
-6.0000000894069672
31
0
0
LINE
5
125
100
AcDbEntity
8
0
100
AcDbLine
10
-33.263219706943239
20
-7.5000000894069601
30
0
11
-33.263219706943239
21
-23.663334290316765
31
0
0
LINE
5
126
100
AcDbEntity
8
0
100
AcDbLine
10
-43.58309922050131
20
-23.663334290316765
30
0
11
-43.58309922050131
21
-6.0000000894069672
31
0
0
LINE
5
127
100
AcDbEntity
8
0
100
AcDbLine
10
-39.821093819868516
20
-25.163334290316755
30
0
11
-39.821093819868516
21
-18.599999584257603
31
0
0
LINE
5
128
100
AcDbEntity
8
0
100
AcDbLine
10
-39.821093819868516
20
-18.599999584257603
30
0
11
-38.799999132752419
21
-18.599999584257603
31
0
0
LINE
5
129
100
AcDbEntity
8
0
100
AcDbLine
10
-38.799999132752419
20
-18.599999584257603
30
0
11
-38.799999132752419
21
-21.799999512732029
31
0
0
LINE
5
130
100
AcDbEntity
8
0
100
AcDbLine
10
-38.799999132752419
20
-21.799999512732029
30
0
11
-37.199999168515205
21
-21.799999512732029
31
0
0
LINE
5
131
100
AcDbEntity
8
0
100
AcDbLine
10
-37.199999168515205
20
-21.799999512732029
30
0
11
-37.199999168515205
21
-25.163334290316755
31
0
0
ARC
5
132
100
AcDbEntity
8
0
100
AcDbCircle
10
-42.08309922050131
20
-7.5000000894069574
30
0
40
1.4999999999999902
210
0
220
-0
230
1
100
AcDbArc
50
90
51
180
0
ARC
5
133
100
AcDbEntity
8
0
100
AcDbCircle
10
-34.763219706943232
20
-7.5000000894069574
30
0
40
1.4999999999999902
210
-0
220
0
230
1
100
AcDbArc
50
0
51
90
0
ARC
5
134
100
AcDbEntity
8
0
100
AcDbCircle
10
-34.763219706943232
20
-23.663334290316762
30
0
40
1.4999999999999947
210
-0
220
0
230
1
100
AcDbArc
50
270
51
360
0
ARC
5
135
100
AcDbEntity
8
0
100
AcDbCircle
10
-42.083099220501325
20
-23.663334290316765
30
0
40
1.4999999999999858
210
0
220
0
230
1
100
AcDbArc
50
180
51
270.00000000000051
0
LINE
5
136
100
AcDbEntity
8
0
100
AcDbLine
10
-34.763219706943232
20
-25.163334290316755
30
0
11
-37.199999168515205
21
-25.163334290316755
31
0
0
LINE
5
137
100
AcDbEntity
8
0
100
AcDbLine
10
-39.821093819868516
20
-25.163334290316755
30
0
11
-42.08309922050131
21
-25.163334290316755
31
0
0
CIRCLE
5
138
100
AcDbEntity
8
0
100
AcDbCircle
10
10.399999767541884
20
-14.699999671429397
30
0
40
9.3034269667469633
210
-0
220
0
230
1
0
LINE
5
139
100
AcDbEntity
8
0
100
AcDbLine
10
11.152680208494953
20
-5.4378079538383801
30
0
11
11.152680208494953
21
-8.0832903100316233
31
0
0
LINE
5
140
100
AcDbEntity
8
0
100
AcDbLine
10
11.152680208494953
20
-8.0832903100316233
30
0
11
9.5250381042771508
21
-8.0832903100316233
31
0
0
LINE
5
141
100
AcDbEntity
8
0
100
AcDbLine
10
9.5250381042771508
20
-8.0832903100316233
30
0
11
9.5250381042771508
21
-5.4378079538383801
31
0
0
LINE
5
142
100
AcDbEntity
8
0
100
AcDbLine
10
1.8237230269400748
20
-11.12198338747856
30
0
11
4.339726260541509
21
-11.939482393861347
31
0
0
LINE
5
143
100
AcDbEntity
8
0
100
AcDbLine
10
3.8367571895780128
20
-13.48746202327405
30
0
11
1.3207539559765737
21
-12.669963016891259
31
0
0
LINE
5
144
100
AcDbEntity
8
0
100
AcDbLine
10
4.339726260541509
20
-11.939482393861347
30
0
11
3.8367571895780128
21
-13.48746202327405
31
0
0
LINE
5
145
100
AcDbEntity
8
0
100
AcDbLine
10
4.3468888039717264
20
-21.750855713238199
30
0
11
5.9018643181420485
21
-19.610615528758785
31
0
0
LINE
5
146
100
AcDbEntity
8
0
100
AcDbLine
10
7.2186544412144613
20
-20.567319553628302
30
0
11
5.6636789270441277
21
-22.707559738107715
31
0
0
LINE
5
147
100
AcDbEntity
8
0
100
AcDbLine
10
5.9018643181420485
20
-19.610615528758785
30
0
11
7.2186544412144613
21
-20.567319553628302
31
0
0
LINE
5
148
100
AcDbEntity
8
0
100
AcDbLine
10
15.235248194982706
20
-22.635684639000623
30
0
11
13.680272680812369
21
-20.495444454521213
31
0
0
LINE
5
149
100
AcDbEntity
8
0
100
AcDbLine
10
14.997062803884781
20
-19.5387404296517
30
0
11
16.552038318055111
21
-21.678980614131113
31
0
0
LINE
5
150
100
AcDbEntity
8
0
100
AcDbLine
10
13.680272680812369
20
-20.495444454521213
30
0
11
14.997062803884781
21
-19.5387404296517
31
0
0
LINE
5
151
100
AcDbEntity
8
0
100
AcDbLine
10
19.441458603319948
20
-12.553666663591219
30
0
11
16.925455369718506
21
-13.371165669974012
31
0
0
LINE
5
152
100
AcDbEntity
8
0
100
AcDbLine
10
16.422486298755008
20
-11.823186040561311
30
0
11
18.938489532356449
21
-11.005687034178525
31
0
0
LINE
5
153
100
AcDbEntity
8
0
100
AcDbLine
10
16.925455369718506
20
-13.371165669974012
30
0
11
16.422486298755008
21
-11.823186040561311
31
0
0
LINE
5
154
100
AcDbEntity
8
0
100
AcDbLine
10
10.000000149011612
20
-13.500000201165676
30
0
11
10.171832545777061
21
-12.731236316909895
31
0
0
LINE
5
155
100
AcDbEntity
8
0
100
AcDbLine
10
10.171832545777061
20
-12.731236316909895
30
0
11
10.667221664126544
21
-12.841964592887534
31
0
0
LINE
5
156
100
AcDbEntity
8
0
100
AcDbLine
10
10.667221664126544
20
-12.841964592887534
30
0
11
10.848930536678139
21
-13.529751270736217
31
0
0
LINE
5
157
100
AcDbEntity
8
0
100
AcDbLine
10
9.322237491401129
20
-14.037861544158757
30
0
11
8.9597168445170023
21
-13.33850250697048
31
0
0
LINE
5
158
100
AcDbEntity
8
0
100
AcDbLine
10
9.4103816896506096
20
-13.104895300230712
30
0
11
9.9916795163627761
21
-13.514970251001682
31
0
0
LINE
5
159
100
AcDbEntity
8
0
100
AcDbLine
10
8.9597168445170023
20
-13.33850250697048
30
0
11
9.4103816896506096
21
-13.104895300230712
31
0
0
LINE
5
160
100
AcDbEntity
8
0
100
AcDbLine
10
9.1487717807903799
20
-14.88554467574736
30
0
11
8.4215255299019667
21
-14.582828351636905
31
0
0
LINE
5
161
100
AcDbEntity
8
0
100
AcDbLine
10
8.6165950121998343
20
-14.114193070468172
30
0
11
9.3254860795482273
21
-14.054677667220268
31
0
0
LINE
5
162
100
AcDbEntity
8
0
100
AcDbLine
10
8.4215255299019667
20
-14.582828351636905
30
0
11
8.6165950121998343
21
-14.114193070468172
31
0
0
LINE
5
163
100
AcDbEntity
8
0
100
AcDbLine
10
9.5607695510307664
20
-15.646409237712557
30
0
11
8.8090842993705358
21
-15.881979959048403
31
0
0
LINE
5
164
100
AcDbEntity
8
0
100
AcDbLine
10
8.6572832401096829
20
-15.397596259810559
30
0
11
9.1620695392353504
21
-14.896338421163502
31
0
0
LINE
5
165
100
AcDbEntity
8
0
100
AcDbLine
10
8.8090842993705358
20
-15.881979959048403
30
0
11
8.6572832401096829
21
-15.397596259810559
31
0
0
LINE
5
166
100
AcDbEntity
8
0
100
AcDbLine
10
10.36545246658163
20
-15.964438245443153
30
0
11
9.9410500974524201
21
-16.62806985363531
31
0
0
LINE
5
167
100
AcDbEntity
8
0
100
AcDbLine
10
9.5134078993418552
20
-16.354586252526918
30
0
11
9.5778943108090857
21
-15.646130092044006
31
0
0
LINE
5
168
100
AcDbEntity
8
0
100
AcDbLine
10
9.9410500974524201
20
-16.62806985363531
30
0
11
9.5134078993418552
21
-16.354586252526918
31
0
0
LINE
5
169
100
AcDbEntity
8
0
100
AcDbLine
10
11.18630044820228
20
-15.690822391723282
30
0
11
11.287763546826589
21
-16.471994281854865
31
0
0
LINE
5
170
100
AcDbEntity
8
0
100
AcDbLine
10
10.784378747075875
20
-16.537376795266198
30
0
11
10.378391362272518
21
-15.953216824050573
31
0
0
LINE
5
171
100
AcDbEntity
8
0
100
AcDbLine
10
11.287763546826589
20
-16.471994281854865
30
0
11
10.784378747075875
21
-16.537376795266198
31
0
0
LINE
5
172
100
AcDbEntity
8
0
100
AcDbLine
10
11.639229602583271
20
-14.953589575409957
30
0
11
12.21908245747805
21
-15.486782738329897
31
0
0
LINE
5
173
100
AcDbEntity
8
0
100
AcDbLine
10
11.875494398389426
20
-15.860438161590105
30
0
11
11.188999226712159
21
-15.673909322388473
31
0
0
LINE
5
174
100
AcDbEntity
8
0
100
AcDbLine
10
12.21908245747805
20
-15.486782738329897
30
0
11
11.875494398389426
21
-15.860438161590105
31
0
0
LINE
5
175
100
AcDbEntity
8
0
100
AcDbLine
10
11.512309344642894
20
-14.097699224686284
30
0
11
12.299232360656227
21
-14.133426653682404
31
0
0
LINE
5
176
100
AcDbEntity
8
0
100
AcDbLine
10
12.276209713633186
20
-14.640517461530569
30
0
11
11.630425475453789
21
-14.938898671242507
31
0
0
LINE
5
177
100
AcDbEntity
8
0
100
AcDbLine
10
12.299232360656227
20
-14.133426653682404
30
0
11
12.276209713633186
21
-14.640517461530569
31
0
0
LINE
5
178
100
AcDbEntity
8
0
100
AcDbLine
10
10.864927073632987
20
-13.523631946817554
30
0
11
11.490710225897089
21
-13.045176380796423
31
0
0
LINE
5
179
100
AcDbEntity
8
0
100
AcDbLine
10
11.799025543349945
20
-13.448429148553824
30
0
11
11.496121860804907
21
-14.092104523017351
31
0
0
LINE
5
180
100
AcDbEntity
8
0
100
AcDbLine
10
11.490710225897089
20
-13.045176380796423
30
0
11
11.799025543349945
21
-13.448429148553824
31
0
0
LWPOLYLINE
5
181
100
AcDbEntity
8
0
100
AcDbPolyline
90
4
70
1
43
0.0
10
-27.79127959105438
20
-51.669498565130212
10
0.5000000074505806
20
-51.669498565130212
10
0.5000000074505806
20
-65.500000976026058
10
-27.79127959105438
20
-65.500000976026058
0
LWPOLYLINE
5
182
100
AcDbEntity
8
0
100
AcDbPolyline
90
4
70
1
43
0.0
10
-3.0000000447034836
20
-56.500000841915607
10
-1.1539986784045153
20
-56.500000841915607
10
-1.1539986784045153
20
-63.296518174097613
10
-3.0000000447034836
20
-63.296518174097613
0
LWPOLYLINE
5
183
100
AcDbEntity
8
0
100
AcDbPolyline
90
4
70
1
43
0.0
10
-26.500000394880772
20
-57.000000849366188
10
-24.719267111407017
20
-57.000000849366188
10
-24.719267111407017
20
-63.779083397981616
10
-26.500000394880772
20
-63.779083397981616
0
LWPOLYLINE
5
184
100
AcDbEntity
8
0
100
AcDbPolyline
90
4
70
1
43
0.0
10
-22.78900621587098
20
-52.814129144172725
10
-10.500000156462193
20
-52.814129144172725
10
-10.500000156462193
20
-61.500000916421413
10
-22.78900621587098
20
-61.500000916421413
0
LWPOLYLINE
5
185
100
AcDbEntity
8
0
100
AcDbPolyline
90
16
70
1
43
0.0
10
8.0000001192092896
20
-46.000000685453415
10
8.0000001192092896
20
-48.000000715255737
10
5.1588952198911198
20
-48.000000715255737
10
5.2999998815357685
20
-67.139732547808038
10
16.243284228928054
20
-67.059054905684874
10
16.243284228928054
20
-65.500000976026058
10
18.132888987904298
20
-65.486070162235663
10
18.090932527550116
20
-59.795008006935639
10
16.243284228928054
20
-59.808629503323161
10
16.206083877594875
20
-54.762695936741359
10
18.053732176216936
20
-54.749074440353837
10
18.011225404218649
20
-48.983366861084491
10
15.896592376138463
20
-48.998956660384721
10
15.886893817038235
20
-47.683423791541287
10
13.544820810535471
20
-47.700690356298878
10
13.531026335570267
20
-45.829578881117392
0
LINE
5
186
100
AcDbEntity
8
0
100
AcDbLine
10
5.1588952198911198
20
-48.000000715255737
30
0
11
5.2999998815357685
21
-48.000000715255737
31
0
0
LWPOLYLINE
5
187
100
AcDbEntity
8
0
100
AcDbPolyline
90
4
70
1
43
0.0
10
57.826229361682991
20
-23.396123681769371
10
65.810121238340272
20
-23.396123681769371
10
65.810121238340272
20
-65.078062984026289
10
57.826229361682991
20
-65.078062984026289
0
LWPOLYLINE
5
188
100
AcDbEntity
8
0
100
AcDbPolyline
90
4
70
1
43
0.0
10
59.369823200159722
20
-25.196104415517269
10
64.58811596955735
20
-25.196104415517269
10
64.58811596955735
20
-26.88141730152994
10
59.369823200159722
20
-26.88141730152994
0
LWPOLYLINE
5
189
100
AcDbEntity
8
0
100
AcDbPolyline
90
4
70
1
43
0.0
10
60.210279201465859
20
-61.342844808240201
10
65.500000976026058
20
-61.342844808240201
10
65.500000976026058
20
-63.000000938773155
10
60.210279201465859
20
-63.000000938773155
0
LWPOLYLINE
5
190
100
AcDbEntity
8
0
100
AcDbPolyline
90
4
70
1
43
0.0
10
21.000000312924385
20
-16.000000238418579
10
22.000000327825546
20
-66.000000983476639
10
56.000000834465027
20
-65.000000968575478
10
54.550135570858124
20
-15.704582005940617
42
0.6931450367837686
0
ELLIPSE
5
191
100
AcDbEntity
8
0
100
AcDbEllipse
10
47.099998947232962
20
-20.059656518976109
30
0
11
-1.9999999552965164
21
-1.702197372755165e-17
31
0.0
40
0.22982848367219325
41
0
42
6.2831853071795862
0
LINE
5
192
100
AcDbEntity
8
0
100
AcDbLine
10
49.099998902529478
20
-20.059656518976109
30
0
11
45.099998991936445
21
-20.059656518976109
31
0
0
LINE
5
193
100
AcDbEntity
8
0
100
AcDbLine
10
47.099998947232962
20
-19.599999561905861
30
0
11
47.099998947232962
21
-20.51931347604636
31
0
0
LWPOLYLINE
5
194
100
AcDbEntity
8
0
100
AcDbPolyline
90
4
70
1
43
0.0
10
34.759470462605563
20
-15.683820501330992
10
41.366137808026473
20
-15.683820501330992
10
41.366137808026473
20
-17.517265093602724
10
34.759470462605563
20
-17.517265093602724
0
LWPOLYLINE
5
195
100
AcDbEntity
8
0
100
AcDbPolyline
90
4
70
1
43
0.0
10
23.635719996534466
20
-34.964984819061627
10
25.544383331906538
20
-34.964984819061627
10
25.544383331906538
20
-41.416684891134501
10
23.635719996534466
20
-41.416684891134501
0
LWPOLYLINE
5
196
100
AcDbEntity
8
0
100
AcDbPolyline
90
4
70
1
43
0.0
10
51.786053341273082
20
-34.964984819061627
10
53.500000797212124
20
-34.964984819061627
10
53.500000797212124
20
-41.000000610947609
10
51.786053341273082
20
-41.000000610947609
0
CIRCLE
5
197
100
AcDbEntity
8
0
100
AcDbCircle
10
38.950000047574235
20
-50.749999783823682
30
0
40
1.7507132092927222
210
0
220
0
230
1
0
ENDSEC
0
SECTION
2
OBJECTS
0
DICTIONARY
5
C
100
AcDbDictionary
3
ACAD_GROUP
350
D
3
ACAD_MLINESTYLE
350
17
0
DICTIONARY
5
D
100
AcDbDictionary
0
DICTIONARY
5
1A
330
C
100
AcDbDictionary
0
DICTIONARY
5
17
100
AcDbDictionary
0
ENDSEC
0
EOF
